<?xml version="1.0" standalone="no"?>
<!DOCTYPE svg PUBLIC "-//W3C//DTD SVG 20010904//EN"
 "http://www.w3.org/TR/2001/REC-SVG-20010904/DTD/svg10.dtd">
<svg version="1.0" xmlns="http://www.w3.org/2000/svg"
 width="984.000000pt" height="984.000000pt" viewBox="0 0 984.000000 984.000000"
 preserveAspectRatio="xMidYMid meet">
<metadata>
Created by potrace 1.14, written by Peter Selinger 2001-2017
</metadata>
<g transform="translate(0.000000,984.000000) scale(0.100000,-0.100000)"
fill="#000000" stroke="none">
<path d="M5095 9826 c-84 -27 -141 -72 -186 -145 -31 -51 -41 -104 -45 -234
-12 -471 -13 -666 -4 -672 6 -4 8 -10 5 -15 -10 -15 44 -109 83 -146 40 -38
112 -77 152 -81 51 -7 146 -2 158 7 1 2 5 3 10 4 27 6 85 43 115 73 60 59 87
126 90 218 1 44 7 83 12 87 6 5 5 8 -3 8 -7 0 -10 5 -7 10 7 11 14 227 16 505
2 142 1 153 -24 205 -38 82 -127 162 -197 177 -50 11 -140 11 -175 -1z"/>
<path d="M1645 8902 c-3 -3 -13 -7 -23 -8 -101 -13 -191 -83 -235 -183 -21
-47 -32 -176 -17 -196 4 -5 11 -25 15 -42 3 -18 10 -33 15 -33 5 0 11 -8 14
-18 8 -23 40 -57 175 -182 62 -58 132 -123 156 -145 235 -222 278 -256 350
-276 172 -48 367 73 391 242 18 130 -10 203 -117 310 -44 44 -81 79 -83 79 -1
0 -28 24 -58 53 -30 28 -99 94 -154 144 -54 51 -126 118 -159 148 -65 61 -121
91 -181 100 -22 3 -49 7 -61 9 -12 2 -25 1 -28 -2z"/>
<path d="M7993 8727 c-76 -27 -124 -66 -170 -137 -20 -30 -40 -56 -45 -58 -4
-2 -8 -7 -8 -11 0 -6 -86 -137 -232 -355 -7 -10 -21 -29 -30 -41 -10 -13 -18
-28 -18 -34 0 -6 -3 -11 -8 -11 -4 0 -19 -21 -32 -47 -14 -27 -29 -51 -35 -55
-5 -4 -7 -8 -3 -8 4 0 3 -11 -2 -25 -21 -56 -12 -158 20 -221 35 -67 126 -154
144 -137 3 3 6 1 6 -5 0 -7 8 -12 18 -12 10 0 22 -3 26 -7 9 -10 33 -13 89
-14 54 0 74 5 136 32 37 17 131 97 131 112 0 2 34 55 75 117 41 62 75 117 75
121 0 5 4 9 10 9 5 0 17 16 26 35 9 19 20 35 25 35 5 0 9 6 9 13 0 7 9 23 20
35 11 12 20 26 20 32 0 5 5 10 10 10 6 0 10 7 10 15 0 8 5 15 10 15 6 0 10 4
10 10 0 8 56 96 70 110 10 10 41 76 46 100 27 115 -2 224 -80 302 -88 88 -208
116 -323 75z"/>
<path d="M4718 7995 c-2 -2 -39 -5 -83 -9 -44 -4 -91 -8 -105 -10 -14 -2 -49
-7 -79 -11 -30 -3 -63 -9 -75 -12 -12 -3 -30 -6 -41 -8 -11 -2 -20 -4 -20 -5
0 -1 -9 -3 -20 -5 -42 -8 -71 -14 -110 -25 -22 -6 -49 -13 -59 -15 -38 -9
-151 -48 -161 -55 -5 -5 -12 -8 -15 -8 -9 1 -54 -14 -95 -32 -22 -10 -69 -30
-105 -45 -36 -16 -72 -34 -80 -40 -8 -6 -28 -17 -45 -25 -16 -8 -65 -36 -108
-62 -43 -27 -83 -48 -88 -48 -5 0 -9 -3 -9 -8 0 -4 -18 -18 -40 -32 -22 -14
-40 -28 -40 -32 0 -4 -8 -9 -17 -12 -10 -3 -30 -16 -44 -28 -15 -13 -51 -43
-80 -68 -57 -48 -210 -198 -270 -266 -113 -127 -266 -351 -331 -484 -39 -81
-109 -243 -112 -260 -2 -8 -27 -73 -37 -95 -15 -33 -101 -336 -107 -380 -1 -5
-4 -30 -8 -55 -4 -25 -11 -53 -16 -62 -6 -12 -5 -18 2 -18 6 0 8 -4 5 -10 -26
-42 -40 -473 -21 -640 10 -86 20 -157 32 -225 11 -61 55 -241 64 -265 6 -14
12 -34 14 -45 14 -73 102 -292 189 -475 48 -100 214 -380 237 -400 3 -3 17
-21 30 -40 22 -32 128 -168 140 -180 3 -3 23 -27 45 -55 48 -60 76 -93 92
-110 35 -37 157 -182 171 -204 9 -14 19 -28 23 -31 10 -9 86 -124 141 -215 49
-82 188 -354 188 -369 0 -3 14 -35 30 -71 17 -36 30 -68 30 -72 0 -3 14 -44
32 -90 31 -82 32 -83 62 -78 17 2 49 7 71 10 22 3 51 7 65 10 25 4 44 7 170
25 166 24 191 28 198 34 5 6 -10 57 -79 272 -22 67 -41 130 -44 140 -2 10 -17
58 -34 107 -16 48 -27 87 -24 87 3 0 0 6 -6 14 -6 7 -12 25 -13 40 -1 14 -7
26 -12 26 -5 0 -7 3 -3 6 3 4 0 19 -9 35 -8 16 -12 29 -10 29 3 0 1 12 -5 28
-6 15 -12 34 -14 42 -2 8 -12 42 -23 75 -20 61 -103 328 -112 360 -2 6 -20 61
-41 123 -21 61 -36 112 -33 112 2 0 -2 13 -11 30 -8 16 -15 31 -14 32 2 3 -52
183 -76 253 -34 100 -115 363 -115 374 0 6 -4 19 -9 29 -6 9 -26 71 -46 137
-20 66 -41 131 -45 145 -29 83 -120 379 -124 402 -8 46 32 110 84 134 48 23
84 20 137 -11 31 -18 39 -32 77 -144 27 -78 36 -95 36 -68 0 8 6 22 13 29 7 7
18 24 25 38 7 14 23 43 37 65 13 22 27 47 31 55 4 8 15 26 24 40 10 14 28 45
42 70 14 25 46 80 72 123 25 43 46 82 46 87 0 6 3 10 8 10 4 0 20 25 37 55 16
30 33 55 38 55 4 0 6 4 3 8 -3 5 5 24 18 43 12 19 40 65 62 102 21 38 47 81
56 95 9 15 23 38 31 52 57 106 135 230 157 252 39 39 107 47 159 18 37 -21 51
-42 94 -140 9 -19 39 -86 66 -149 28 -63 51 -120 51 -127 0 -7 3 -14 8 -16 7
-3 60 -123 87 -198 l13 -35 25 57 c22 49 39 92 42 108 1 3 8 21 16 40 9 19 26
62 39 95 12 33 26 69 31 80 50 122 88 216 87 218 0 1 11 28 26 59 22 46 35 61
70 77 46 23 86 23 126 1 38 -20 56 -49 86 -130 15 -41 34 -86 41 -100 7 -14
13 -32 13 -41 0 -9 3 -19 8 -23 4 -4 7 -11 8 -14 0 -4 6 -20 13 -37 6 -16 28
-73 47 -125 20 -52 39 -104 44 -115 4 -11 22 -56 38 -100 17 -44 38 -100 47
-125 122 -321 155 -416 155 -445 0 -19 -5 -35 -11 -35 -5 0 -8 -4 -5 -9 7 -11
-57 -77 -76 -79 -7 -1 -24 -3 -38 -5 -45 -6 -131 41 -136 75 -1 5 -3 10 -4 13
-1 3 -3 8 -5 13 -1 4 -5 14 -8 22 -22 48 -149 387 -149 398 -1 6 -4 12 -8 12
-4 0 -7 6 -7 13 -1 12 -71 202 -98 262 -7 17 -15 37 -17 45 -3 10 -11 0 -22
-25 -24 -55 -33 -79 -35 -88 0 -4 -7 -20 -15 -36 -9 -16 -12 -31 -9 -35 4 -3
1 -6 -5 -6 -7 0 -12 -9 -12 -19 0 -11 -7 -32 -15 -48 -14 -27 -123 -298 -128
-317 -7 -31 -46 -92 -70 -110 -20 -15 -42 -20 -83 -20 -49 1 -59 5 -90 35 -19
18 -34 37 -34 41 0 5 -16 43 -35 84 -19 41 -35 76 -35 79 0 2 -13 33 -29 67
-16 35 -48 108 -71 163 -23 55 -53 125 -67 155 -14 30 -29 65 -34 78 -10 25
-29 30 -29 7 0 -8 -4 -15 -10 -15 -5 0 -10 -4 -10 -9 0 -4 -43 -82 -96 -172
-53 -90 -105 -177 -114 -194 -9 -16 -45 -77 -80 -135 -35 -58 -73 -123 -85
-145 -13 -22 -44 -74 -69 -115 -25 -41 -53 -89 -61 -107 -14 -31 -81 -103 -94
-101 -3 0 -20 0 -37 -1 -27 -1 -31 -5 -31 -26 0 -14 4 -25 9 -25 6 0 8 -7 5
-15 -4 -8 -2 -17 2 -20 5 -2 12 -22 16 -42 4 -21 10 -42 13 -48 4 -5 7 -12 7
-15 0 -3 11 -39 24 -80 13 -41 24 -79 26 -85 1 -5 5 -17 8 -25 7 -18 68 -211
72 -225 1 -5 5 -17 8 -25 3 -8 24 -76 47 -150 23 -74 58 -184 77 -245 33 -106
62 -201 73 -240 2 -5 20 -61 41 -122 21 -62 35 -113 32 -113 -3 0 0 -7 7 -15
7 -8 10 -15 7 -15 -3 0 7 -36 23 -80 16 -44 26 -80 23 -80 -3 0 -1 -6 4 -12 6
-7 16 -35 23 -63 7 -27 16 -54 19 -60 3 -5 6 -15 7 -21 1 -7 15 -54 32 -105
16 -52 40 -128 52 -169 12 -41 29 -89 36 -107 8 -17 14 -35 14 -41 0 -5 12
-45 26 -88 14 -43 27 -86 29 -94 2 -8 4 -15 5 -15 1 0 3 -9 5 -19 2 -10 8 -22
14 -26 6 -3 62 1 123 11 62 9 136 20 163 23 28 4 61 9 75 11 52 9 87 14 165
25 44 7 87 13 95 15 8 1 39 6 67 10 29 4 56 11 59 16 3 5 14 40 25 77 30 102
79 275 83 293 3 9 14 47 26 85 12 38 23 76 25 84 1 8 9 35 16 60 15 54 14 51
21 70 6 14 75 257 83 290 4 17 65 231 94 330 11 36 29 97 40 135 34 116 82
289 86 308 2 9 7 22 10 27 5 9 8 19 18 65 2 6 6 16 10 23 5 6 6 12 4 12 -3 0
6 37 20 83 13 45 26 89 28 97 2 8 4 16 5 18 2 1 3 5 4 10 2 4 8 27 15 52 7 25
15 53 16 62 2 10 6 22 9 26 2 4 14 41 25 82 11 41 27 100 36 130 9 30 18 62
20 70 2 8 18 62 35 120 17 58 33 114 35 124 12 54 71 105 126 108 109 7 177
-93 140 -205 -7 -19 -13 -43 -15 -53 -2 -11 -14 -48 -26 -84 -12 -36 -23 -74
-25 -85 -7 -36 -26 -105 -55 -196 -11 -34 -22 -72 -25 -83 -5 -24 -46 -168
-68 -238 -8 -27 -13 -48 -10 -48 3 0 1 -6 -5 -13 -6 -7 -13 -26 -16 -42 -3
-17 -15 -61 -26 -100 -12 -38 -23 -81 -26 -94 -3 -13 -9 -31 -13 -40 -5 -9 -9
-19 -10 -23 -1 -5 -1 -9 -2 -10 0 -2 -2 -11 -5 -21 -5 -20 -7 -27 -23 -87 -7
-25 -15 -52 -18 -60 -3 -8 -7 -22 -9 -30 -2 -8 -17 -62 -34 -120 -17 -58 -33
-114 -35 -125 -3 -11 -14 -48 -25 -82 -11 -34 -22 -72 -24 -85 -3 -13 -5 -24
-7 -25 -1 -2 -3 -7 -4 -13 -1 -5 -3 -11 -5 -12 -1 -2 -3 -10 -5 -19 -4 -24
-55 -201 -62 -219 -3 -8 -8 -24 -10 -35 -2 -11 -8 -31 -13 -45 -5 -14 -21 -68
-36 -120 -14 -52 -32 -117 -40 -145 -8 -27 -17 -59 -19 -69 -3 -11 -11 -40
-19 -65 -8 -25 -18 -61 -21 -80 l-7 -33 43 7 c24 4 51 9 59 10 9 2 43 7 75 11
33 4 62 8 65 9 6 1 92 14 135 20 17 2 50 7 75 11 25 4 58 7 74 7 21 1 33 8 45
29 9 15 19 28 24 28 4 0 7 4 7 9 0 9 77 130 89 141 3 3 12 17 19 31 8 15 24
37 37 51 12 14 30 38 38 54 8 16 25 39 36 51 12 12 21 24 21 27 0 3 75 110
168 238 92 128 176 247 186 263 11 17 25 36 32 42 7 7 22 29 35 50 13 21 26
40 29 43 13 11 190 291 190 300 0 6 5 10 10 10 6 0 10 5 10 10 0 6 12 29 27
53 32 51 183 347 183 360 0 5 6 23 14 40 37 85 108 297 99 297 -3 0 -1 6 5 13
5 6 13 26 15 42 3 17 8 40 11 53 11 40 23 99 31 147 3 17 7 41 10 55 3 14 8
48 11 75 3 28 8 68 10 90 7 55 12 398 6 408 -2 5 -6 36 -8 70 -5 75 -9 111
-18 157 -3 19 -8 46 -10 60 -7 42 -45 203 -56 240 -6 19 -13 42 -15 50 -8 39
-39 126 -48 138 -5 6 -7 12 -4 12 7 0 -32 98 -79 198 -19 41 -34 78 -34 82 0
5 -3 10 -7 12 -5 2 -21 28 -36 58 -16 30 -41 75 -57 100 -17 25 -33 52 -37 60
-4 8 -11 20 -15 25 -5 6 -32 42 -61 81 -29 38 -58 77 -65 85 -7 7 -29 34 -50
58 -58 69 -200 211 -272 271 -36 30 -67 57 -70 60 -3 3 -34 27 -70 53 -36 26
-69 51 -75 55 -5 4 -25 17 -42 27 -18 11 -33 23 -33 27 0 4 -4 8 -10 8 -5 0
-40 18 -76 41 -121 74 -411 212 -469 223 -5 1 -21 8 -35 16 -14 7 -27 13 -30
12 -3 -1 -43 11 -90 26 -47 14 -92 27 -100 28 -8 1 -41 10 -73 18 -86 24 -278
57 -417 72 -53 6 -417 13 -422 9z"/>
<path d="M9158 5875 c-2 -2 -32 -6 -68 -9 -36 -4 -84 -9 -107 -12 -23 -3 -66
-7 -95 -9 -29 -2 -53 -4 -53 -5 0 -1 -16 -3 -35 -5 -45 -4 -121 -12 -190 -20
-30 -4 -68 -8 -85 -10 -42 -4 -115 -25 -146 -41 -55 -28 -150 -146 -141 -176
1 -5 -2 -8 -7 -8 -5 0 -8 -42 -6 -92 2 -81 6 -99 31 -143 30 -52 83 -107 131
-133 30 -16 133 -43 142 -37 3 1 42 6 86 9 44 4 100 9 125 11 25 3 65 8 90 11
25 2 63 7 85 9 79 8 151 16 185 20 19 3 62 7 94 10 144 11 216 50 292 160 47
68 55 183 19 272 -31 78 -119 167 -175 178 -11 2 -25 7 -30 10 -10 6 -137 15
-142 10z"/>
<path d="M1268 5554 c-3 -2 -95 -5 -508 -20 -85 -2 -166 -7 -180 -10 -14 -3
-30 -6 -37 -8 -7 -1 -16 -5 -19 -9 -4 -4 -15 -7 -24 -7 -22 0 -127 -95 -136
-123 -3 -12 -11 -28 -17 -35 -17 -21 -22 -50 -21 -132 0 -58 5 -86 24 -124 26
-54 91 -124 133 -143 15 -7 39 -19 54 -25 34 -17 198 -15 748 6 77 3 143 15
151 27 3 5 9 7 14 4 17 -10 113 80 139 130 14 27 28 52 31 55 25 25 5 240 -22
240 -5 0 -7 4 -4 9 9 14 -84 106 -129 129 -23 11 -57 23 -76 27 -38 7 -117 13
-121 9z"/>
<path d="M6017 2164 c-2 -3 -22 -7 -43 -9 -22 -2 -52 -6 -69 -9 -31 -5 -104
-16 -140 -21 -43 -5 -121 -17 -150 -22 -37 -6 -68 -11 -125 -18 -25 -3 -54 -7
-65 -10 -11 -2 -69 -11 -130 -20 -60 -9 -121 -18 -135 -20 -14 -3 -45 -7 -70
-10 -25 -3 -58 -9 -75 -12 -16 -3 -43 -7 -60 -9 -16 -1 -48 -5 -70 -9 -41 -6
-130 -20 -200 -30 -22 -4 -53 -9 -70 -12 -33 -5 -80 -12 -135 -18 -19 -2 -36
-4 -37 -6 -2 -1 -12 -3 -23 -4 -11 -1 -21 -3 -22 -5 -2 -1 -21 -3 -43 -5 -22
-2 -51 -6 -65 -8 -14 -3 -47 -8 -75 -11 -27 -4 -61 -9 -75 -11 -14 -3 -40 -7
-57 -10 -18 -3 -45 -7 -60 -10 -16 -2 -50 -7 -78 -11 -27 -3 -51 -7 -52 -8 0
0 7 -45 17 -99 11 -53 21 -121 24 -150 3 -28 5 -52 6 -52 1 0 3 -18 4 -40 1
-44 5 -45 91 -31 22 3 58 8 80 10 22 2 54 7 70 9 30 6 102 17 140 22 66 9 117
17 167 26 32 5 79 12 105 15 90 11 98 12 103 14 3 1 13 2 23 1 9 -1 17 1 17 6
0 4 15 8 33 9 17 0 55 4 82 8 28 5 61 10 75 12 14 1 41 6 60 9 19 3 49 7 65 9
40 5 113 16 150 23 17 3 41 6 55 8 42 5 124 17 145 21 11 2 38 7 60 9 22 3 51
7 65 10 14 2 45 7 70 10 25 3 70 10 100 15 30 5 75 12 100 15 25 4 61 9 80 12
40 7 70 11 86 12 6 1 11 7 11 14 5 68 14 167 19 187 3 14 7 36 10 50 2 14 7
31 10 39 2 8 7 30 10 50 3 20 7 41 9 48 4 13 -9 26 -18 17z"/>
<path d="M5959 1396 c-6 -6 -50 -15 -109 -22 -45 -5 -81 -11 -90 -14 -3 -1 -9
-2 -13 -1 -5 1 -34 -3 -65 -8 -56 -10 -75 -13 -162 -26 -77 -11 -94 -14 -140
-20 -25 -3 -52 -8 -60 -10 -8 -2 -37 -6 -65 -10 -68 -8 -115 -15 -145 -20 -14
-3 -38 -7 -55 -9 -16 -2 -61 -9 -100 -15 -126 -19 -150 -22 -185 -27 -58 -8
-79 -12 -91 -20 -8 -5 -9 -3 -4 6 5 9 4 11 -4 6 -10 -7 -48 -13 -236 -41 -22
-4 -69 -11 -105 -16 -36 -6 -81 -12 -100 -15 -19 -2 -43 -7 -52 -10 -10 -3
-37 -7 -60 -9 -24 -2 -61 -7 -83 -10 -22 -4 -44 -8 -50 -9 -40 -7 -39 -34 6
-222 17 -71 32 -137 34 -147 2 -10 12 -36 22 -58 16 -37 20 -40 48 -35 16 3
53 8 80 12 28 3 57 8 67 9 20 4 93 15 133 20 17 2 30 4 30 5 0 1 15 3 34 5 18
2 63 8 100 14 36 6 82 13 101 16 19 2 46 7 60 9 14 3 48 8 75 11 28 4 61 9 75
11 14 3 39 6 55 8 57 8 130 18 150 22 42 8 115 18 200 29 33 4 62 9 65 10 6 4
116 18 143 19 9 0 17 3 17 6 0 3 12 6 28 7 37 2 107 11 107 13 0 1 16 3 35 6
19 2 49 6 65 9 17 3 44 7 60 9 35 4 122 17 149 22 24 4 26 6 32 40 3 16 9 45
14 64 10 39 12 136 6 283 -4 93 -7 113 -17 103z"/>
<path d="M5769 516 c-2 -2 -29 -7 -60 -10 -31 -4 -67 -9 -80 -12 -13 -3 -40
-7 -59 -9 -19 -2 -48 -6 -65 -8 -16 -3 -50 -8 -75 -12 -25 -4 -58 -9 -75 -12
-16 -2 -39 -6 -50 -8 -88 -13 -115 -17 -150 -20 -22 -2 -40 -4 -40 -5 0 -4
-45 -10 -87 -12 -27 -2 -48 -5 -48 -8 0 -3 -8 -6 -17 -6 -17 -1 -79 -10 -133
-19 -33 -6 -98 -15 -135 -20 -16 -3 -48 -7 -70 -11 -22 -4 -53 -8 -70 -10 -16
-1 -30 -3 -30 -4 0 -1 -11 -3 -25 -5 -14 -1 -45 -6 -70 -9 -25 -4 -58 -9 -75
-11 -16 -2 -32 -4 -35 -5 -7 -3 -23 -7 -37 -8 -13 -2 63 -82 77 -82 5 0 10 -3
12 -8 6 -13 101 -79 153 -105 131 -65 252 -92 420 -92 113 0 158 6 265 36 78
21 280 115 280 130 0 5 5 9 11 9 36 0 207 169 277 275 15 22 30 42 35 43 4 2
7 8 7 13 0 9 -42 13 -51 5z"/>
</g>
</svg>
